<?xml version="1.0" encoding="UTF-8"?>
<svg width="512" height="512" viewBox="0 0 512 512" xmlns="http://www.w3.org/2000/svg">
  <g>
    <path fill="#8BC34A" d="M313.6,122.3c-0.8,1.1-1.6,2.2-2.4,3.3c-16.8,23.8-33.6,47.6-50.4,71.4c-1.1,1.6-2.2,2.2-4.1,2.2
      c-17.9-0.1-35.8-0.1-53.7,0c-1.9,0-3-0.6-4.1-2.2c-16.8-23.8-33.6-47.6-50.4-71.4c-0.8-1.1-1.6-2.2-2.4-3.3
      c55.8-39.4,111.7-39.4,167.5,0z"/>
    <path fill="#4CAF50" d="M148.4,389.7c-0.8-1.1-1.6-2.2-2.4-3.3c-16.8-23.8-33.6-47.6-50.4-71.4c-1.1-1.6-1.1-2.8,0-4.4
      c8.9-12.7,17.9-25.4,26.8-38.1c0.9-1.3,1.8-1.8,3.3-1.8c17.9,0.1,35.8,0.1,53.7,0c1.5,0,2.4,0.5,3.3,1.8
      c16.8,23.8,33.6,47.6,50.4,71.4c0.8,1.1,1.6,2.2,2.4,3.3C204.2,386.6,176.3,396.4,148.4,389.7z"/>
    <path fill="#4CAF50" d="M363.6,389.7c-0.8-1.1-1.6-2.2-2.4-3.3c-16.8-23.8-33.6-47.6-50.4-71.4c-1.1-1.6-1.1-2.8,0-4.4
      c8.9-12.7,17.9-25.4,26.8-38.1c0.9-1.3,1.8-1.8,3.3-1.8c17.9,0.1,35.8,0.1,53.7,0c1.5,0,2.4,0.5,3.3,1.8
      c16.8,23.8,33.6,47.6,50.4,71.4c0.8,1.1,1.6,2.2,2.4,3.3C419.4,386.6,391.5,396.4,363.6,389.7z"/>
  </g>
</svg>
